<svg preserveAspectRatio="none" width="100%" height="100%" overflow="visible" style="display: block;" viewBox="0 0 20 20" fill="none" xmlns="http://www.w3.org/2000/svg">
<g id="armchair 2">
<path id="Vector" d="M16.8749 6.9375V5.625C16.8749 4.7962 16.5456 4.00134 15.9596 3.41529C15.3735 2.82924 14.5787 2.5 13.7499 2.5H6.24988C5.42108 2.5 4.62622 2.82924 4.04017 3.41529C3.45412 4.00134 3.12488 4.7962 3.12488 5.625V6.9375C2.41845 7.08095 1.78333 7.46421 1.32714 8.02234C0.870952 8.58047 0.621745 9.27915 0.621745 10C0.621745 10.7208 0.870952 11.4195 1.32714 11.9777C1.78333 12.5358 2.41845 12.9191 3.12488 13.0625V15.625C3.12488 15.9565 3.25657 16.2745 3.49099 16.5089C3.72541 16.7433 4.04336 16.875 4.37488 16.875H15.6249C15.9564 16.875 16.2743 16.7433 16.5088 16.5089C16.7432 16.2745 16.8749 15.9565 16.8749 15.625V13.0625C17.5813 12.9191 18.2164 12.5358 18.6726 11.9777C19.1288 11.4195 19.378 10.7208 19.378 10C19.378 9.27915 19.1288 8.58047 18.6726 8.02234C18.2164 7.46421 17.5813 7.08095 16.8749 6.9375ZM6.24988 3.75H13.7499C14.2472 3.75 14.7241 3.94754 15.0757 4.29917C15.4273 4.65081 15.6249 5.12772 15.6249 5.625V6.9375C14.9195 7.08253 14.2857 7.46633 13.8303 8.02419C13.3749 8.58205 13.1258 9.27986 13.1249 10H6.87488C6.874 9.27986 6.62486 8.58205 6.16946 8.02419C5.71407 7.46633 5.08026 7.08253 4.37488 6.9375V5.625C4.37488 5.12772 4.57242 4.65081 4.92405 4.29917C5.27568 3.94754 5.7526 3.75 6.24988 3.75ZM16.2803 11.875H16.2499C16.0841 11.875 15.9251 11.9408 15.8079 12.0581C15.6907 12.1753 15.6249 12.3342 15.6249 12.5V15.625H4.37488V12.5C4.37488 12.3342 4.30903 12.1753 4.19182 12.0581C4.07461 11.9408 3.91564 11.875 3.74988 11.875H3.71941C3.34993 11.869 2.99045 11.7539 2.68615 11.5443C2.38184 11.3347 2.14626 11.0398 2.00901 10.6967C1.87176 10.3536 1.83894 9.97757 1.9147 9.61589C1.99045 9.2542 2.17138 8.92296 2.43478 8.66378C2.69818 8.4046 3.03229 8.22902 3.39514 8.15911C3.758 8.0892 4.13343 8.12807 4.47427 8.27083C4.81511 8.4136 5.10616 8.65389 5.31088 8.96154C5.51559 9.26919 5.62483 9.63047 5.62488 10V13.125C5.62488 13.2908 5.69073 13.4497 5.80794 13.5669C5.92515 13.6842 6.08412 13.75 6.24988 13.75C6.41564 13.75 6.57461 13.6842 6.69182 13.5669C6.80903 13.4497 6.87488 13.2908 6.87488 13.125V11.25H13.1249V13.125C13.1249 13.2908 13.1907 13.4497 13.3079 13.5669C13.4251 13.6842 13.5841 13.75 13.7499 13.75C13.9156 13.75 14.0746 13.6842 14.1918 13.5669C14.309 13.4497 14.3749 13.2908 14.3749 13.125V10C14.3749 9.63047 14.4842 9.26919 14.6889 8.96154C14.8936 8.65389 15.1846 8.4136 15.5255 8.27083C15.8663 8.12807 16.2418 8.0892 16.6046 8.15911C16.9675 8.22902 17.3016 8.4046 17.565 8.66378C17.8284 8.92296 18.0093 9.2542 18.0851 9.61589C18.1608 9.97757 18.128 10.3536 17.9907 10.6967C17.8535 11.0398 17.6179 11.3347 17.3136 11.5443C17.0093 11.7539 16.6498 11.869 16.2803 11.875Z" fill="var(--fill-0, #353535)"/>
</g>
</svg>
