<svg preserveAspectRatio="none" width="100%" height="100%" overflow="visible" style="display: block;" viewBox="0 0 20 19.9991" fill="none" xmlns="http://www.w3.org/2000/svg">
<g id="Group">
<path id="Vector" d="M19.9991 6.25619C19.9991 6.01731 19.9991 5.77844 19.9981 5.53956C19.9972 5.33864 19.9944 5.1368 19.9889 4.93588C19.9769 4.49794 19.9509 4.05537 19.8732 3.62205C19.7945 3.18226 19.6648 2.77302 19.4611 2.37304C19.2611 1.98046 19 1.62122 18.6889 1.3092C18.3769 0.998102 18.0186 0.737003 17.6251 0.537012C17.2261 0.333318 16.8168 0.20462 16.377 0.12592C15.9437 0.0481459 15.5011 0.0222212 15.0632 0.0101847C14.8623 0.00462941 14.6604 0.00277765 14.4595 0.000925883C14.2206 0 13.9818 0 13.7429 0H6.25619C6.01731 0 5.77844 0 5.53956 0.000925883C5.33864 0.00185177 5.1368 0.00462941 4.93588 0.0101847C4.49794 0.0222212 4.05537 0.0481459 3.62205 0.12592C3.18226 0.20462 2.77302 0.334244 2.37396 0.537012C1.98139 0.737003 1.62122 0.998102 1.31012 1.3092C0.998102 1.62122 0.737929 1.97954 0.537938 2.37304C0.334244 2.77302 0.205546 3.18226 0.12592 3.62205C0.0481459 4.05537 0.0222212 4.49794 0.0111106 4.93588C0.0055553 5.1368 0.00277765 5.33864 0.00185177 5.53956C0 5.77844 0 6.01731 0 6.25619V13.7429C0 13.9818 0 14.2206 0.00185177 14.4595C0.00277765 14.6604 0.0055553 14.8623 0.0111106 15.0632C0.0231471 15.5011 0.0490718 15.9437 0.126846 16.377C0.205546 16.8168 0.33517 17.227 0.538864 17.626C0.738855 18.0186 0.999954 18.3779 1.31105 18.6889C1.62215 19.001 1.98139 19.2621 2.37489 19.4621C2.77395 19.6658 3.18319 19.7945 3.62298 19.8732C4.05629 19.9509 4.49887 19.9769 4.93681 19.9889C5.13772 19.9944 5.33957 19.9963 5.54048 19.9981C5.77936 19.9991 6.01824 19.9991 6.25712 19.9991H13.7438C13.9827 19.9991 14.2216 19.9991 14.4604 19.9981C14.6614 19.9972 14.8632 19.9944 15.0641 19.9889C15.5021 19.9769 15.9446 19.9509 16.3779 19.8732C16.8177 19.7945 17.227 19.6648 17.626 19.4621C18.0186 19.2621 18.3779 19.001 18.6899 18.6889C19.0019 18.3779 19.2621 18.0186 19.4621 17.626C19.6658 17.2261 19.7945 16.8168 19.8741 16.377C19.9519 15.9437 19.9778 15.5021 19.9898 15.0632C19.9954 14.8623 19.9972 14.6604 19.9991 14.4595C20 14.2206 20 13.9818 20 13.7429V6.25619H19.9991Z" fill="var(--fill-0, white)"/>
<g id="Group_2">
<path id="Vector_2" d="M7.46483 16.3598V7.05555H7.07411L4.70385 8.62492V9.02213L7.04726 7.48794H7.07503V16.3607H7.46483V16.3598Z" fill="var(--fill-0, black)"/>
<path id="Vector_3" d="M9.78047 7.05555V7.41202H14.8913V7.43979L10.7869 16.3607H11.2258L15.296 7.43239V7.05555H9.78047Z" fill="var(--fill-0, black)"/>
</g>
<path id="Vector_4" d="M3.63411 5.23217V3.22023H3.64151L4.43685 5.02663H4.70072L5.49328 3.22023H5.50254V5.23217H5.76641V2.56748H5.4868L4.57388 4.70257H4.56647L3.65077 2.56841H3.37115V5.23217H3.63411Z" fill="var(--fill-0, #FF0000)"/>
<path id="Vector_5" d="M7.20058 3.15357C6.64413 3.15357 6.33488 3.55818 6.33488 4.10631V4.30722C6.33488 4.85812 6.64135 5.26459 7.20058 5.26459C7.75889 5.26459 8.06351 4.85812 8.06351 4.30722V4.10631C8.06443 3.55818 7.75519 3.15357 7.20058 3.15357ZM7.20058 3.40541C7.56353 3.40541 7.77648 3.6767 7.77648 4.12019V4.29241C7.77648 4.73776 7.56353 5.00904 7.20058 5.00904C6.83486 5.00904 6.62283 4.73591 6.62283 4.29241V4.12019C6.62283 3.67762 6.83579 3.40541 7.20058 3.40541Z" fill="var(--fill-0, #FF0000)"/>
<path id="Vector_6" d="M8.60145 5.23215H8.88848V3.97943C8.88848 3.68685 9.04865 3.41649 9.42364 3.41649C9.74399 3.41649 9.94954 3.61 9.94954 3.95906V5.2303H10.2366V3.91554C10.2366 3.41927 9.92176 3.15169 9.50048 3.15169C9.16439 3.15169 8.97273 3.32761 8.89681 3.46464H8.88848V3.18502H8.60145V5.23215Z" fill="var(--fill-0, #FF0000)"/>
<path id="Vector_7" d="M11.5578 3.15169C11.0495 3.15169 10.7393 3.54797 10.7393 4.10257V4.31182C10.7393 4.87661 11.0263 5.2627 11.5578 5.2627C11.8513 5.2627 12.0615 5.11456 12.1707 4.91272H12.1781V5.23122H12.4494V2.42487H12.1624V3.47945H12.155C12.0559 3.30261 11.8448 3.15169 11.5578 3.15169ZM11.5837 3.40816C11.9467 3.40816 12.1698 3.69333 12.1698 4.11554V4.30534C12.1698 4.74514 11.9531 5.00809 11.5874 5.00809C11.2634 5.00809 11.0273 4.77199 11.0273 4.30349V4.11831C11.0263 3.64056 11.2671 3.40816 11.5837 3.40816Z" fill="var(--fill-0, #FF0000)"/>
<path id="Vector_8" d="M14.2262 4.96645H14.2336V5.23218H14.5132V3.81002C14.5132 3.38967 14.2049 3.15357 13.779 3.15357C13.3049 3.15357 13.0605 3.40171 13.0364 3.75725H13.3077C13.3308 3.54059 13.4855 3.40171 13.7669 3.40171C14.0577 3.40171 14.2262 3.55633 14.2262 3.84335V4.06371H13.6697C13.2031 4.06557 12.9568 4.29241 12.9568 4.6461C12.9568 5.02108 13.2281 5.26551 13.6253 5.26551C13.9373 5.26459 14.128 5.13033 14.2262 4.96645ZM13.6929 5.01737C13.4623 5.01737 13.2531 4.89423 13.2531 4.64054C13.2531 4.44148 13.3799 4.29889 13.679 4.29889H14.2262V4.55073C14.2262 4.82572 13.9975 5.01737 13.6929 5.01737Z" fill="var(--fill-0, #FF0000)"/>
<path id="Vector_9" d="M16.6279 3.18688H16.3215L15.7372 4.89791H15.727L15.1428 3.18688H14.8234L15.5872 5.26456L15.5484 5.38956C15.4882 5.60066 15.3845 5.7238 15.1437 5.7238C15.0993 5.7238 15.0262 5.71825 14.9937 5.71177V5.9562C15.0447 5.96361 15.1206 5.97194 15.1891 5.97194C15.5872 5.97194 15.7243 5.6988 15.8317 5.40345L15.89 5.25068L16.6279 3.18688Z" fill="var(--fill-0, #FF0000)"/>
</g>
</svg>
