<svg width="133" height="80" viewBox="0 0 133 80" fill="none" xmlns="http://www.w3.org/2000/svg">
  <rect width="133" height="80" rx="2" fill="#E8F3FF"/>
  <rect x="9" y="8" width="16" height="3" rx="0.7" fill="white"/>
  <rect x="30" y="8" width="91" height="3" rx="0.7" fill="white"/>
  <rect x="9" y="16" width="16" height="3" rx="0.7" fill="white"/>
  <rect x="30" y="14" width="66" height="3" rx="0.7" fill="white"/>
  <rect x="9" y="26" width="16" height="3" rx="0.7" fill="white"/>
  <rect x="30" y="21" width="91" height="3" rx="0.7" fill="white"/>
  <rect x="9" y="34" width="110" height="3" rx="0.7" fill="white"/>
  <rect x="9" y="40" width="66" height="3" rx="0.7" fill="white"/>
  <rect x="9" y="51" width="91" height="3" rx="0.7" fill="white"/>
  <rect x="104" y="51" width="15" height="3" rx="0.7" fill="white"/>
  <rect x="9" y="60" width="91" height="3" rx="0.7" fill="white"/>
  <rect x="104" y="60" width="15" height="3" rx="0.7" fill="white"/>
  <rect x="9" y="68" width="31" height="3" rx="0.7" fill="white"/>
  <rect x="104" y="68" width="15" height="3" rx="0.7" fill="white"/>
</svg>
