<svg preserveAspectRatio="none" width="100%" height="100%" overflow="visible" style="display: block;" viewBox="0 0 135.336 27.8585" fill="none" xmlns="http://www.w3.org/2000/svg">
<g id="Logo Wrapper">
<path id="Vector" d="M27.4945 14.8168C27.4949 12.5439 27.01 10.3014 26.0772 8.26286C25.1445 6.2243 23.7889 4.44435 22.1155 3.0608C20.4421 1.67724 18.4956 0.727179 16.4269 0.284146C14.3581 -0.158887 12.2225 -0.0830088 10.1853 0.505908C8.14805 1.09482 6.26393 2.18098 4.67871 3.68032C3.09349 5.17965 1.84969 7.05195 1.04358 9.15229C0.237475 11.2526 -0.109319 13.5247 0.0300411 15.7926C0.169401 18.0605 0.791178 20.2635 1.84725 22.2309H25.6392C26.8558 19.9801 27.496 17.4216 27.4945 14.8168V14.8168Z" fill="var(--fill-0, #13AA65)"/>
<path id="Vector_2" d="M39.9138 5.9017H42.9471V12.5571H49.6239V5.9017H52.6545V22.3455H49.6239V15.6584H42.9471V22.3657H39.9138V5.9017Z" fill="var(--fill-0, #13AA65)"/>
<path id="Vector_3" d="M64.8811 17.6575H57.2672C57.5055 19.2788 58.8735 19.7951 60.0595 19.7951C60.6421 19.8158 61.2206 19.6831 61.7449 19.4087C62.2692 19.1342 62.7236 18.7262 63.0686 18.22L64.8811 20.1471C64.3027 20.9303 63.5655 21.5602 62.7259 21.9883C61.8863 22.4164 60.9668 22.6313 60.0381 22.6166C57.1146 22.6166 54.234 20.6173 54.234 16.4573C54.234 12.3435 57.0477 10.2029 59.856 10.2029C62.5332 10.2029 64.9641 12.1791 64.9641 16.1515C64.9632 16.6548 64.9355 17.1576 64.8811 17.6575V17.6575ZM59.7543 12.9061C59.1415 12.875 58.5411 13.0996 58.0779 13.5331C57.6147 13.9667 57.3244 14.5759 57.2672 15.2342H62.153C62.0219 13.7283 61.0634 12.9061 59.7543 12.9061V12.9061Z" fill="var(--fill-0, #13AA65)"/>
<path id="Vector_4" d="M88.2822 12.1071V5.9017H91.227V22.3455H88.2822V20.8886C87.8681 21.4503 87.3375 21.8995 86.733 22.2001C86.1286 22.5007 85.4672 22.6444 84.8018 22.6196C82.0096 22.6196 79.2387 20.528 79.2387 16.3882C79.2387 12.2484 81.9426 10.2059 84.6707 10.2059C86.285 10.2031 87.5727 10.8839 88.2822 12.1071ZM88.2581 16.4113C88.2581 13.8149 86.6678 12.8831 85.2061 12.8831C83.5034 12.8831 82.2157 14.1294 82.2157 16.3853C82.2157 18.5721 83.4606 19.9366 85.2489 19.9366C86.874 19.9366 88.2474 18.7856 88.2474 16.4113H88.2581Z" fill="var(--fill-0, #13AA65)"/>
<path id="Vector_5" d="M105.309 17.7499L107.467 10.5088H110.77L106.682 22.3657H103.869L101.459 15.442L99.0818 22.3657H96.2762L92.239 10.5088H95.5105L97.6683 17.721L100.027 10.5088H102.905L105.309 17.7499Z" fill="var(--fill-0, #13AA65)"/>
<path id="Vector_6" d="M135.336 21.9128C135.336 25.7901 132.498 27.8585 129.575 27.8585C127.088 27.8585 124.796 26.3786 124.076 23.5572L126.74 22.5215C127.109 24.3332 128.346 25.1323 129.685 25.1323C131.232 25.1323 132.41 24.1457 132.41 22.1465V20.4155C132.074 20.9707 131.616 21.4269 131.075 21.7428C130.535 22.0586 129.93 22.2241 129.315 22.2244C127.023 22.2244 124.842 20.629 124.842 17.4066V10.4829H127.808V16.971C127.808 18.4769 128.528 19.5126 129.95 19.5126C131.454 19.5126 132.359 18.2663 132.359 16.2902V10.5089H135.328L135.336 21.9128Z" fill="var(--fill-0, #13AA65)"/>
<path id="Vector_7" d="M74.8803 10.5088V11.9512C74.203 10.754 73.025 10.2203 71.6061 10.2203C68.7924 10.2203 65.9118 12.3609 65.9118 16.4978C65.9118 20.4472 68.5729 22.6339 71.3223 22.6339C71.9958 22.6493 72.6641 22.5039 73.2792 22.2082C73.8943 21.9124 74.4411 21.4736 74.8803 20.9232V22.3656H77.8252V10.5088H74.8803ZM71.7373 19.8644C70.1872 19.8644 68.8567 18.5489 68.8567 16.4026C68.8567 14.2159 70.2301 12.8975 71.8015 12.8975C73.373 12.8975 74.7919 14.2389 74.7919 16.3593C74.7919 18.5259 73.3302 19.8644 71.7373 19.8644Z" fill="var(--fill-0, #13AA65)"/>
<path id="Vector_8" d="M119.57 10.5088V11.9512C118.893 10.754 117.712 10.2203 116.296 10.2203C113.482 10.2203 110.602 12.3609 110.602 16.4978C110.602 20.4472 113.263 22.6339 116.012 22.6339C116.686 22.6493 117.354 22.5039 117.969 22.2082C118.584 21.9124 119.131 21.4736 119.57 20.9232V22.3656H122.515V10.5088H119.57ZM116.427 19.8644C114.877 19.8644 113.547 18.5489 113.547 16.4026C113.547 14.2159 114.92 12.8975 116.491 12.8975C118.063 12.8975 119.482 14.2389 119.482 16.3593C119.482 18.5259 118.02 19.8644 116.427 19.8644Z" fill="var(--fill-0, #13AA65)"/>
</g>
</svg>
