<svg xmlns="http://www.w3.org/2000/svg" viewBox="0 0 256 256" width="100%" height="100%" style="display: block;" fill="none" stroke="#353535" stroke-width="12" stroke-linecap="round" stroke-linejoin="round">
  <path d="M232,104h-9.73a84.04,84.04,0,0,0-32.3-55.88l8.37-8.37a8,8,0,0,0-11.32-11.32l-12.91,12.91a83.6,83.6,0,0,0-40.11-11.25,83.33,83.33,0,0,0-83.1,69.55c-9.83,5.6-27.9,21.6-27.9,44.36,0,26.47,24.27,32.47,32,32.47h8l8,24h40l8-24h4a78.86,78.86,0,0,0,48-16l16,16h16l8-40h8a8,8,0,0,0,8-8v-16A16,16,0,0,0,232,104Z"/>
  <circle cx="140" cy="92" r="10" fill="#353535" stroke="none"/>
</svg>
